<svg xmlns="http://www.w3.org/2000/svg" viewBox="0 0 64 64"><defs><linearGradient id="g" x1="0" y1="0" x2="1" y2="1"><stop stop-color="#fff"/><stop offset="1" stop-color="#b9d9eb"/></linearGradient></defs><rect x="3" y="3" width="58" height="58" rx="16" fill="url(#g)"/><path d="M17 19h13c4 0 7 2 8 5 1-3 4-5 8-5h1v27h-3c-4 0-6 1-6 4-1-3-3-4-7-4H17z" fill="#173b5e"/><path d="M20 23h10c3 0 5 1 6 3v17c-2-1-4-2-7-2h-9zm27 0h-1c-3 0-5 1-6 3v17c2-1 4-2 7-2z" fill="#fff"/><circle cx="51" cy="14" r="7" fill="#3b704a"/><path d="m48 14 2 2 4-5" fill="none" stroke="#fff" stroke-width="2.2" stroke-linecap="round" stroke-linejoin="round"/></svg>